<svg width="14px" height="14px" viewBox="0 0 14 14" version="1.1" xmlns="http://www.w3.org/2000/svg" xmlns:xlink="http://www.w3.org/1999/xlink">
    <!-- Generator: Sketch 41.2 (35397) - http://www.bohemiancoding.com/sketch -->
    <desc>Created with Sketch.</desc>
    <defs></defs>
    <path d="M12.25,8.75 C13.2164375,8.75 14,7.9664375 14,7 C14,6.0335625 13.2164375,5.25 12.25,5.25 L11.9511875,5.25 C11.8890625,5.07441667 11.8180417,4.9030625 11.7382708,4.73652083 L11.9497292,4.52520833 C12.6331042,3.8416875 12.6331042,2.73379167 11.9497292,2.05027083 C11.2662083,1.36689583 10.1583125,1.36689583 9.47479167,2.05027083 L9.26347917,2.26172917 C9.09679167,2.18195833 8.92558333,2.1109375 8.75,2.0488125 L8.75,1.75 C8.75,0.7835625 7.9664375,0 7,0 C6.0335625,0 5.25,0.7835625 5.25,1.75 L5.25,2.0488125 C5.07441667,2.1109375 4.9030625,2.18195833 4.73652083,2.26172917 L4.52520833,2.05027083 C3.8416875,1.36689583 2.73379167,1.36689583 2.05027083,2.05027083 C1.36689583,2.73379167 1.36689583,3.8416875 2.05027083,4.52520833 L2.26172917,4.73652083 C2.18195833,4.90320833 2.1109375,5.07441667 2.0488125,5.25 L1.75,5.25 C0.7835625,5.25 0,6.0335625 0,7 C0,7.9664375 0.7835625,8.75 1.75,8.75 L2.0488125,8.75 C2.1109375,8.92558333 2.18195833,9.0969375 2.26172917,9.26347917 L2.05027083,9.47479167 C1.36689583,10.1583125 1.36689583,11.2662083 2.05027083,11.9497292 C2.73379167,12.6331042 3.8416875,12.6331042 4.52520833,11.9497292 L4.73652083,11.7382708 C4.90320833,11.8180417 5.07441667,11.8890625 5.25,11.9511875 L5.25,12.25 C5.25,13.2164375 6.0335625,14 7,14 C7.9664375,14 8.75,13.2164375 8.75,12.25 L8.75,11.9511875 C8.92558333,11.8890625 9.0969375,11.8180417 9.26347917,11.7382708 L9.47479167,11.9497292 C10.1583125,12.6331042 11.2662083,12.6331042 11.9497292,11.9497292 C12.6331042,11.2662083 12.6331042,10.1583125 11.9497292,9.47479167 L11.7382708,9.26347917 C11.8180417,9.09679167 11.8890625,8.92558333 11.9511875,8.75 L12.25,8.75 L12.25,8.75 Z M11.0420625,7.58333333 C10.9430417,8.27516667 10.670625,8.911 10.2704583,9.44547917 L11.1018542,10.2770208 L11.12475,10.2997708 C11.3525417,10.5275625 11.3525417,10.8971042 11.12475,11.12475 C10.8969583,11.3523958 10.5275625,11.3525417 10.2997708,11.12475 L10.2770208,11.1018542 L9.44547917,10.2704583 C8.911,10.670625 8.27516667,10.9430417 7.58333333,11.0420625 L7.58333333,12.25 C7.58333333,12.5721458 7.32214583,12.8333333 7,12.8333333 C6.67785417,12.8333333 6.41666667,12.5721458 6.41666667,12.25 L6.41666667,11.0420625 C5.72483333,10.9430417 5.089,10.670625 4.55452083,10.2704583 L3.72297917,11.1018542 L3.70022917,11.12475 C3.4724375,11.3525417 3.10289583,11.3525417 2.87525,11.12475 C2.64760417,10.8969583 2.64745833,10.5275625 2.87525,10.2997708 L2.89814583,10.2770208 L3.72954167,9.44547917 C3.329375,8.911 3.05695833,8.27516667 2.9579375,7.58333333 L1.75,7.58333333 C1.42785417,7.58333333 1.16666667,7.32214583 1.16666667,7 C1.16666667,6.67785417 1.42785417,6.41666667 1.75,6.41666667 L2.9579375,6.41666667 C3.05695833,5.72483333 3.329375,5.089 3.72954167,4.55452083 L2.89814583,3.72297917 L2.87525,3.70022917 C2.64745833,3.4724375 2.64745833,3.10289583 2.87525,2.87525 C3.10304167,2.64760417 3.4724375,2.64745833 3.70022917,2.87525 L3.72297917,2.89814583 L4.55452083,3.72954167 C5.089,3.329375 5.7246875,3.05695833 6.41666667,2.9579375 L6.41666667,1.75 C6.41666667,1.42785417 6.67785417,1.16666667 7,1.16666667 C7.32214583,1.16666667 7.58333333,1.42785417 7.58333333,1.75 L7.58333333,2.9579375 C8.27516667,3.05695833 8.911,3.329375 9.44547917,3.72954167 L10.2770208,2.89814583 L10.2997708,2.87525 C10.5275625,2.64745833 10.8971042,2.64745833 11.12475,2.87525 C11.3523958,3.10304167 11.3525417,3.4724375 11.12475,3.70022917 L11.1018542,3.72297917 L10.2704583,4.55452083 C10.670625,5.089 10.9430417,5.7246875 11.0420625,6.41666667 L12.25,6.41666667 C12.5721458,6.41666667 12.8333333,6.67785417 12.8333333,7 C12.8333333,7.32214583 12.5721458,7.58333333 12.25,7.58333333 L11.0420625,7.58333333 L11.0420625,7.58333333 Z M7,4.66666667 C5.71127083,4.66666667 4.66666667,5.71127083 4.66666667,7 C4.66666667,8.28872917 5.71127083,9.33333333 7,9.33333333 C8.28872917,9.33333333 9.33333333,8.28872917 9.33333333,7 C9.33333333,5.71127083 8.28872917,4.66666667 7,4.66666667 L7,4.66666667 Z M7,8.16666667 C6.35570833,8.16666667 5.83333333,7.64429167 5.83333333,7 C5.83333333,6.35570833 6.35570833,5.83333333 7,5.83333333 C7.64429167,5.83333333 8.16666667,6.35570833 8.16666667,7 C8.16666667,7.64429167 7.64429167,8.16666667 7,8.16666667 L7,8.16666667 Z" id="Shape" stroke="none" fill="#FFFFFF" fill-rule="evenodd" opacity="0.4"></path>
</svg>