<svg width="16px" height="16px" viewBox="25 228 16 16" version="1.1" xmlns="http://www.w3.org/2000/svg" xmlns:xlink="http://www.w3.org/1999/xlink">
    <!-- Generator: Sketch 41.2 (35397) - http://www.bohemiancoding.com/sketch -->
    <desc>Created with Sketch.</desc>
    <defs></defs>
    <g id="head" opacity="1" stroke="none" stroke-width="1" fill="none" fill-rule="evenodd" transform="translate(25.000000, 228.000000)">
        <g id="Layer_1" fill="#FFFFFF">
            <path d="M10.7785,8.876 C11.5313333,8.14883333 12,7.12916667 12,6 L12,4 C12,1.79083333 10.2091667,0 8,0 C5.79083333,0 4,1.79083333 4,4 L4,6 C4,7.12883333 4.46866667,8.14816667 5.221,8.8755 C2.17283333,9.35033333 0,10.5813333 0,12.0156667 L0,13.3333333 C0,14.4383333 0.895,15.3333333 2,15.3333333 L14,15.3333333 C15.105,15.3333333 16,14.4383333 16,13.3333333 L16,12.0208333 C16,10.5866667 13.827,9.35183333 10.7785,8.876 L10.7785,8.876 Z M5.33333333,6 L5.33333333,4 C5.33333333,2.52733333 6.52733333,1.33333333 8,1.33333333 C9.47283333,1.33333333 10.6666667,2.52733333 10.6666667,4 L10.6666667,6 C10.6666667,7.47266667 9.47283333,8.66666667 8,8.66666667 C6.52733333,8.66666667 5.33333333,7.47266667 5.33333333,6 L5.33333333,6 Z M14.6666667,13.3333333 C14.6666667,13.701 14.3676667,14 14,14 L2,14 C1.63233333,14 1.33333333,13.701 1.33333333,13.3333333 L1.33333333,12.0156667 C1.33333333,11.8603333 1.7175,11.3588333 2.85866667,10.8803333 C4.19266667,10.3208333 6.06666667,10 8,10 C9.93233333,10 11.8058333,10.3216667 13.1403333,10.8823333 C14.2821667,11.3623333 14.6666667,11.8648333 14.6666667,12.0208333 L14.6666667,13.3333333 L14.6666667,13.3333333 Z" id="Shape"></path>
        </g>
    </g>
</svg>