<svg width="17px" height="17px" viewBox="946 31 17 17" version="1.1" xmlns="http://www.w3.org/2000/svg" xmlns:xlink="http://www.w3.org/1999/xlink">
    <!-- Generator: Sketch 41.2 (35397) - http://www.bohemiancoding.com/sketch -->
    <desc>Created with Sketch.</desc>
    <defs></defs>
    <g id="cross" stroke="none" stroke-width="1" fill="none" fill-rule="evenodd" transform="translate(946.000000, 31.000000)" opacity="0.5">
        <g id="Layer_1" fill="#000000">
            <path d="M9.4147721,8.0005 L15.7076204,1.70740167 C16.0981265,1.31689557 16.0981265,0.683635674 15.7076204,0.293379576 C15.3171143,-0.0971265254 14.6841044,-0.0971265254 14.2935983,0.293379576 L8.0005,6.5862279 L1.70765167,0.293379576 C1.31714557,-0.0971265254 0.683885678,-0.0971265254 0.293379576,0.293379576 C-0.0971265254,0.683885678 -0.0971265254,1.31714557 0.293379576,1.70740167 L6.58647791,8.0005 L0.293379576,14.2935983 C-0.0971265254,14.6841044 -0.0971265254,15.3173643 0.293379576,15.7076204 C0.488632627,15.9028735 0.744636627,16.000625 1.00039062,16.000625 C1.25614462,16.000625 1.51239862,15.9028735 1.70765167,15.7076204 L8.0005,9.4147721 L14.2935983,15.7076204 C14.4888514,15.9028735 14.7448554,16.000625 15.0006094,16.000625 C15.2563634,16.000625 15.5126174,15.9028735 15.7076204,15.7076204 C16.0981265,15.3171143 16.0981265,14.6838544 15.7076204,14.2935983 L9.4147721,8.0005 L9.4147721,8.0005 Z" id="Shape"></path>
        </g>
    </g>
</svg>