<svg width="16px" height="20px" viewBox="25 179 16 20" version="1.1" xmlns="http://www.w3.org/2000/svg" xmlns:xlink="http://www.w3.org/1999/xlink">
    <!-- Generator: Sketch 41.2 (35397) - http://www.bohemiancoding.com/sketch -->
    <desc>Created with Sketch.</desc>
    <defs></defs>
    <g id="paper" stroke="none" stroke-width="1" fill="none" fill-rule="evenodd" transform="translate(25.000000, 179.000000)">
        <g id="Layer_1" fill="#FFFFFF">
            <path d="M13.6,0 L2.4,0 C1.074,0 0,1.074 0,2.4 L0,16.8 C0,18.126 1.074,19.2 2.4,19.2 L13.6,19.2 C14.926,19.2 16,18.126 16,16.8 L16,2.4 C16,1.074 14.926,0 13.6,0 L13.6,0 Z M14.4,16.8 C14.4,17.242 14.042,17.6 13.6,17.6 L2.4,17.6 C1.958,17.6 1.6,17.242 1.6,16.8 L1.6,2.4 C1.6,1.958 1.958,1.6 2.4,1.6 L13.6,1.6 C14.042,1.6 14.4,1.958 14.4,2.4 L14.4,16.8 L14.4,16.8 Z M11.2,13.6 L4.8,13.6 C4.3582,13.6 4,13.9582 4,14.4 C4,14.8418 4.3582,15.2 4.8,15.2 L11.2,15.2 C11.6418,15.2 12,14.8418 12,14.4 C12,13.9582 11.6418,13.6 11.2,13.6 L11.2,13.6 Z M11.2,10.4 L4.8,10.4 C4.3582,10.4 4,10.7582 4,11.2 C4,11.6418 4.3582,12 4.8,12 L11.2,12 C11.6418,12 12,11.6418 12,11.2 C12,10.7582 11.6418,10.4 11.2,10.4 L11.2,10.4 Z M11.2,7.2 L4.8,7.2 C4.3582,7.2 4,7.5582 4,8 C4,8.4418 4.3582,8.8 4.8,8.8 L11.2,8.8 C11.6418,8.8 12,8.4418 12,8 C12,7.5582 11.6418,7.2 11.2,7.2 L11.2,7.2 Z M4.8,5.6 L8,5.6 C8.4418,5.6 8.8,5.2418 8.8,4.8 C8.8,4.3582 8.4418,4 8,4 L4.8,4 C4.3582,4 4,4.3582 4,4.8 C4,5.2418 4.3582,5.6 4.8,5.6 L4.8,5.6 Z" id="Shape"></path>
        </g>
    </g>
</svg>