<svg width="14px" height="15px" viewBox="0 0 14 15" version="1.1" xmlns="http://www.w3.org/2000/svg" xmlns:xlink="http://www.w3.org/1999/xlink">
    <!-- Generator: Sketch 41.2 (35397) - http://www.bohemiancoding.com/sketch -->
    <desc>Created with Sketch.</desc>
    <defs></defs>
    <path d="M3.36827273,4.26867045 C3.11977273,4.02017045 3.11977273,3.61719318 3.36827273,3.36869318 L6.55009091,0.186875 C6.79859091,-0.061625 7.20156818,-0.061625 7.44990909,0.186875 L10.6317273,3.36869318 C10.8802273,3.61719318 10.8802273,4.02017045 10.6317273,4.26867045 C10.5074773,4.39292045 10.3445682,4.45496591 10.1818182,4.45496591 C10.0190682,4.45496591 9.85615909,4.39292045 9.73190909,4.26867045 L7.63636364,2.173125 L7.63636364,9.545875 C7.63636364,9.89730682 7.35143182,10.1822386 7,10.1822386 C6.64856818,10.1822386 6.36363636,9.89730682 6.36363636,9.545875 L6.36363636,2.173125 L4.26809091,4.26867045 C4.01975,4.51701136 3.61661364,4.51701136 3.36827273,4.26867045 L3.36827273,4.26867045 Z M13.3636364,8.90951136 C13.0122045,8.90951136 12.7272727,9.19444318 12.7272727,9.545875 L12.7272727,12.0913295 C12.7272727,12.442125 12.4493409,12.7276932 12.1076136,12.7276932 L1.90909091,12.7276932 C1.55813636,12.7276932 1.27272727,12.442125 1.27272727,12.0913295 L1.27272727,9.545875 C1.27272727,9.19444318 0.987795455,8.90951136 0.636363636,8.90951136 C0.284931818,8.90951136 0,9.19444318 0,9.545875 L0,12.0913295 C0,12.3488977 0.0504318182,12.5986705 0.150181818,12.8346023 C0.246272727,13.0621023 0.384045455,13.2662159 0.559045455,13.4410568 C0.734204545,13.616375 0.938318182,13.7539886 1.16565909,13.8499205 C1.40159091,13.9498295 1.65168182,14.0004205 1.90909091,14.0004205 L12.1076136,14.0004205 C12.36375,14.0004205 12.6127273,13.9495114 12.8470682,13.849125 C13.0726591,13.7522386 13.2750227,13.6141477 13.4485909,13.4383523 C13.6215227,13.2630341 13.7570682,13.0589205 13.8520455,12.8318977 C13.9503636,12.5969205 14,12.347625 14,12.0913295 L14,9.545875 C14,9.19444318 13.7150682,8.90951136 13.3636364,8.90951136 L13.3636364,8.90951136 Z" id="Shape" stroke="none" fill="#FFFFFF" fill-rule="evenodd" opacity="0.4"></path>
</svg>